<svg id="Capa_1" enable-background="new 0 0 512 512" height="512" viewBox="0 0 512 512" width="512" xmlns="http://www.w3.org/2000/svg"><g><path d="m112.168 497h-73.569v-64.719c0-8.692 7.046-15.738 15.738-15.738h42.093c8.692 0 15.738 7.046 15.738 15.738z" fill="#ffe14d"/><path d="m185.737 497h-73.569v-141.241c0-8.692 7.046-15.738 15.738-15.738h42.093c8.692 0 15.738 7.046 15.738 15.738z" fill="#bde239"/><path d="m259.306 497h-73.569v-226.262c0-8.692 7.046-15.738 15.738-15.738h42.093c8.692 0 15.738 7.046 15.738 15.738z" fill="#ffe14d"/><path d="m332.875 497h-73.569v-141.241c0-8.692 7.046-15.738 15.738-15.738h42.093c8.692 0 15.738 7.046 15.738 15.738z" fill="#8bbc43"/><path d="m406.444 497h-73.569v-225.262c0-8.692 7.046-15.738 15.738-15.738h42.093c8.692 0 15.738 7.046 15.738 15.738z" fill="#fabe2c"/><path d="m480.013 497h-73.569v-346.262c0-8.692 7.046-15.738 15.738-15.738h42.093c8.692 0 15.738 7.046 15.738 15.738z" fill="#8bbc43"/><g><g fill="#5e54ac"><path d="m503.405 497c0 8.28-6.72 15-15 15h-464.81c-8.28 0-15-6.72-15-15v-407c0-8.28 6.72-15 15-15 8.29 0 15 6.72 15 15v392h449.81c8.28 0 15 6.72 15 15z"/><path d="m467.935 15v49.06c0 8.29-6.71 15-15 15-8.28 0-15-6.71-15-15v-12.85l-145.64 145.65c-5.4 5.39-13.98 5.88-19.95 1.13-6.68-5.32-9.66-7.69-13.04-10.38-7.55-6-17.11-13.61-74.3-59.1l-91.32 91.31c-5.86 5.86-15.35 5.87-21.22 0-5.85-5.85-5.85-15.35 0-21.21l100.79-100.79c5.39-5.39 13.98-5.88 19.95-1.13 47.51 37.8 57 45.35 66.1 52.6 5.06 4.01 9.99 7.94 21.24 16.89l136.18-136.18h-12.85c-8.29 0-15-6.72-15-15s6.71-15 15-15h49.06c7.44 0 15 4.24 15 15z"/></g></g><g fill="#453d81"><path d="m272.345 197.99c-6.68-5.32-9.66-7.69-13.04-10.38v-38.32c5.06 4.01 9.99 7.94 21.24 16.89l136.18-136.18h-12.85c-8.29 0-15-6.72-15-15s6.71-15 15-15h49.06c7.44 0 15 4.24 15 15v49.06c0 8.29-6.71 15-15 15-8.28 0-15-6.71-15-15v-12.85l-145.64 145.65c-5.4 5.39-13.98 5.88-19.95 1.13z"/><path d="m503.405 497c0 8.28-6.72 15-15 15h-229.1v-30h229.1c8.28 0 15 6.72 15 15z"/></g></g></svg>